<?xml version="1.0" encoding="utf-8"?>
<!-- Generator: Adobe Illustrator 24.0.1, SVG Export Plug-In . SVG Version: 6.00 Build 0)  -->
<svg version="1.1" xmlns="http://www.w3.org/2000/svg" xmlns:xlink="http://www.w3.org/1999/xlink" x="0px" y="0px"
	 viewBox="0 0 277.7 266.6" style="enable-background:new 0 0 277.7 266.6;" xml:space="preserve">
<style type="text/css">
	.st0{display:none;}
	.st1{display:inline;fill:#F7F8FC;}
	.st2{display:inline;}
	.st3{fill:#F7F8FC;}
	.st4{fill:none;stroke:#0561FC;stroke-width:10.0172;stroke-linejoin:round;}
	.st5{fill:#C5E1F9;}
	.st6{fill:none;stroke:#0561FC;stroke-width:10.0172;stroke-linejoin:bevel;}
	.st7{fill:#FFFFFF;stroke:#0561FC;stroke-width:10.0172;stroke-linejoin:round;}
	.st8{fill:#9AC7F7;}
	.st9{fill:#FFFFFF;stroke:#0561FC;stroke-width:10.0172;}
	.st10{fill:#FFFFFF;}
	.st11{fill:none;stroke:#0561FC;stroke-width:10.0172;}
	.st12{fill:none;stroke:#FFFFFF;stroke-width:10.0172;}
	.st13{fill:none;stroke:#0561FC;stroke-width:10.0172;stroke-linecap:round;stroke-miterlimit:10;}
	.st14{fill:#9AC7F7;stroke:#0561FC;stroke-width:10.0172;}
	.st15{fill:#0561FC;}
	.st16{fill:none;stroke:#0561FC;stroke-width:10.0172;stroke-linecap:round;stroke-linejoin:round;}
	.st17{fill:none;stroke:#0561FC;stroke-width:10.0172;stroke-dasharray:9.848,9.848;}
	.st18{fill:none;stroke:#0561FC;stroke-width:10.0172;stroke-dasharray:9.7757,9.7757;}
	.st19{fill:none;stroke:#0561FC;stroke-width:10.0172;stroke-dasharray:9.929,9.929;}
	.st20{fill:none;stroke:#0561FC;stroke-width:10.0172;stroke-dasharray:10.2413,10.2413;}
	.st21{fill:#9AC7F7;stroke:#0561FC;stroke-width:10.0172;stroke-linecap:round;stroke-linejoin:round;}
	.st22{fill:none;stroke:#0561FC;stroke-width:10.0172;stroke-dasharray:10.276,10.276;}
	.st23{fill:#FFFFFF;stroke:#0561FC;stroke-width:10.0172;stroke-linecap:round;stroke-linejoin:round;}
</style>
<g id="Layer_2">
</g>
<g id="Layer_3">
</g>
<g id="Layer_4">
	<g>
		<g>
			<path class="st4" d="M195.2,266.6v-73.3c14.3-14.4,23.2-34.2,23.2-56.1c0-43.9-35.5-79.5-79.3-79.5c-43.8,0-79.3,35.6-79.3,79.5
				c0,1.2,0,2.4,0.1,3.6L48.9,160l-14.6,25.3h18.4v31.4c0,11.8,9.6,21.4,21.4,21.4h33.9v28.5"/>
		</g>
		<g>
			<g>
				<polygon class="st21" points="138.8,102.6 170.3,120.7 138.6,139 107.1,121 				"/>
				<g>
					<g>
						<polygon class="st8" points="169.8,120.2 170.2,156.9 138.5,175.3 138.1,138.6 						"/>
					</g>
					<g>
						<polygon class="st16" points="170.3,120.7 170.6,157.4 138.9,175.7 138.6,139 						"/>
					</g>
				</g>
				<g>
					<g>
						<polygon class="st10" points="138.6,139 138.9,175.7 107.4,157.7 107.1,121 						"/>
					</g>
					<g>
						<polygon class="st16" points="138.6,139 138.9,175.7 107.4,157.7 107.1,121 						"/>
					</g>
				</g>
			</g>
			<path class="st22" d="M197.7,139.2c0,32.6-26.3,59-58.8,59c-32.5,0-58.8-26.4-58.8-59c0-32.6,26.3-59,58.8-59
				C171.3,80.2,197.7,106.6,197.7,139.2z"/>
			<g>
				<g>
					<polyline class="st11" points="161.3,27.9 140.5,7.1 119.7,27.9 					"/>
					<line class="st6" x1="140.5" y1="11.2" x2="140.5" y2="46.5"/>
				</g>
				<g>
					<polyline class="st11" points="76.3,44.6 46.8,44.6 46.8,74.1 					"/>
					<line class="st6" x1="49.8" y1="47.5" x2="74.6" y2="72.5"/>
				</g>
				<g>
					<polyline class="st11" points="27.9,116.7 7.1,137.5 27.9,158.4 					"/>
					<line class="st6" x1="11.2" y1="137.5" x2="46.4" y2="137.5"/>
				</g>
				<g>
					<polyline class="st11" points="249.8,161.7 270.6,140.8 249.8,120 					"/>
					<line class="st6" x1="266.5" y1="140.8" x2="231.3" y2="140.8"/>
				</g>
				<g>
					<polyline class="st11" points="233.2,76.4 233.2,47 203.8,46.9 					"/>
					<line class="st6" x1="230.3" y1="49.9" x2="205.4" y2="74.8"/>
				</g>
			</g>
		</g>
	</g>
</g>
</svg>
